<svg xmlns="http://www.w3.org/2000/svg" viewBox="0 0 609.46 590.12"><defs><style>.cls-1{fill:#fff;}.cls-2{fill:#fcfcfc;}.cls-3{fill:#028090;}.cls-4{fill:#fefefe;}.cls-5{fill:#f9f9f9;}</style></defs><title>Asset 2</title><g id="Layer_2" data-name="Layer 2"><g id="Layer_1-2" data-name="Layer 1"><path class="cls-1" d="M404.88,54.61,374,113.8a182.07,182.07,0,0,0-57.69-13.54v20a163.1,163.1,0,0,1,106.65,51.18l14.14-14.14a184.6,184.6,0,0,0-51.54-38.26l30.81-59a30.43,30.43,0,1,0-11.45-5.5Zm5.7-40a20.5,20.5,0,1,1,6.36,35.26L411.38,47a20.18,20.18,0,0,1-3.72-3.51A20.51,20.51,0,0,1,410.58,14.61Z"/><path class="cls-1" d="M304.27,78.77l-.91,51.66,8.42,0,.9-51.39a20,20,0,0,0,4.43-1.31c10.33-4.35,15.3-16,11.09-26s-16.05-14.6-26.38-10.25-15.3,16-11.08,26A19.45,19.45,0,0,0,304.27,78.77Zm.06-31.41A13.24,13.24,0,1,1,314.6,71.75a13.82,13.82,0,0,1-3.28.91l-4.16,0a13.13,13.13,0,0,1-10.28-7.84A13.46,13.46,0,0,1,304.33,47.36Z"/><path class="cls-1" d="M442.38,536a30.45,30.45,0,0,0-26.5-6l-30.32-58a184.45,184.45,0,0,0,43.23-30.47l-14.14-14.14a162.92,162.92,0,0,1-107.38,44.32v20A182.36,182.36,0,0,0,374,477.33l30.4,58.19a30.2,30.2,0,0,0-5,4.83A30.5,30.5,0,1,0,442.38,536ZM439,572.6a20.5,20.5,0,0,1-31.75-25.93,20.14,20.14,0,0,1,3.71-3.51l5.56-2.9A20.47,20.47,0,0,1,439,572.6Z"/><path class="cls-1" d="M192.13,532.25l30.74-58.85a182.15,182.15,0,0,0,67.4,17.91v-20a163.12,163.12,0,0,1-106.65-51.18l-14.14,14.13a184.86,184.86,0,0,0,42.18,33.24l-31,59.29a30.53,30.53,0,1,0,11.45,5.5Zm-5.7,40A20.5,20.5,0,1,1,180.07,537l5.56,2.9a20.42,20.42,0,0,1,.8,32.36Z"/><path class="cls-1" d="M163.73,54.77a30.48,30.48,0,0,0,26.5,6L221,119.6a184.33,184.33,0,0,0-43.21,30.47l14.14,14.14a162.87,162.87,0,0,1,107.37-44.32v-20a182.21,182.21,0,0,0-66.78,14.37l-30.81-59a30.5,30.5,0,1,0-38-.49Zm3.41-36.6A20.5,20.5,0,0,1,198.9,44.1a20.18,20.18,0,0,1-3.72,3.51l-5.56,2.91a20.48,20.48,0,0,1-22.48-32.35Z"/><path class="cls-1" d="M306.19,512.79a20.62,20.62,0,0,0-4.35-1.56l2-51.35-8.4-.53L293.43,511a19.48,19.48,0,0,0-14.16,10.53c-4.78,9.75-.48,21.7,9.58,26.63s22.13,1,26.91-8.73S316.25,517.72,306.19,512.79Zm3.59,23.69a13.67,13.67,0,0,1-24.53-12A13.13,13.13,0,0,1,296,517.22l4.15.26a13.78,13.78,0,0,1,3.22,1.1A13.47,13.47,0,0,1,309.78,536.48Z"/><path class="cls-1" d="M517.18,309.55c4.35,10.33,16,15.31,26,11.09s14.6-16,10.25-26.37-16-15.3-26-11.09a19.46,19.46,0,0,0-11.33,13.54l-51.66-.91,0,8.41,51.39.91A20.48,20.48,0,0,0,517.18,309.55ZM530,289.32a13.67,13.67,0,1,1-6.89,17.73,13.64,13.64,0,0,1-.92-3.28l0-4.16A13.11,13.11,0,0,1,530,289.32Z"/><path class="cls-1" d="M73.36,271.71c-9.75-4.78-21.69-.48-26.63,9.58s-1,22.14,8.73,26.92,21.69.48,26.62-9.58a20.54,20.54,0,0,0,1.56-4.34l51.36,2,.52-8.4-51.63-2.05A19.45,19.45,0,0,0,73.36,271.71Zm4,20.86a13.94,13.94,0,0,1-1.1,3.22,13.24,13.24,0,1,1-5.87-18.09,13.11,13.11,0,0,1,7.23,10.72Z"/><path class="cls-1" d="M420.13,179.47l6,5.92,37-35.7a20.79,20.79,0,0,0,4.05,2.21c10.38,4.22,22.16-.52,26.25-10.57s-1-21.67-11.4-25.9-22.15.51-26.24,10.57a19.45,19.45,0,0,0,1.55,17.58Zm41.79-51a13.67,13.67,0,1,1,7.66,17.41,13.87,13.87,0,0,1-3-1.67l-3-2.93A13.11,13.11,0,0,1,461.92,128.51Z"/><path class="cls-1" d="M148.76,451.83a21,21,0,0,0-2-4.17l37.76-34.87L179,406.47l-38,35.06A19.47,19.47,0,0,0,123.56,439c-10.27,3.51-15.68,15-12.06,25.6s14.93,16.37,25.21,12.86S152.39,462.43,148.76,451.83Zm-14.21,19.29a13.67,13.67,0,0,1-8.84-25.85,13.16,13.16,0,0,1,12.7,2.47l2.75,3.12a13.78,13.78,0,0,1,1.49,3.06A13.46,13.46,0,0,1,134.55,471.12Z"/><path class="cls-1" d="M471.88,450.25a19.5,19.5,0,0,0-17.59,1.56l-35.88-37.17-5.92,6,35.69,37a21.13,21.13,0,0,0-2.2,4.06c-4.23,10.38.51,22.15,10.57,26.25s21.67-1,25.89-11.4S481.93,454.35,471.88,450.25Zm4.59,23.81a13.24,13.24,0,1,1-24.51-10,14.2,14.2,0,0,1,1.66-3l2.93-3a13.15,13.15,0,0,1,12.81-1.74A13.47,13.47,0,0,1,476.47,474.06Z"/><path class="cls-1" d="M148,145.27a20.82,20.82,0,0,0,4.18-2l34.87,37.75,6.31-5.56-35.06-38a19.46,19.46,0,0,0,2.57-17.47c-3.52-10.27-15-15.68-25.6-12s-16.38,14.93-12.87,25.2S137.44,148.89,148,145.27Zm-10.65-31.15a13.46,13.46,0,0,1,17.21,8.1,13.12,13.12,0,0,1-2.47,12.69L149,137.66a13.6,13.6,0,0,1-3.06,1.5,13.24,13.24,0,1,1-8.56-25Z"/><path class="cls-1" d="M581.24,165.36a30.46,30.46,0,0,0-32.42,35l-67,22.94a183.92,183.92,0,0,0-34.65-52L433,185.44a162.92,162.92,0,0,1,44.32,107.38h20a182.36,182.36,0,0,0-10.81-57.68l66.78-22.86a30.49,30.49,0,1,0,27.91-46.92Zm18.16,31.95a20.47,20.47,0,0,1-38.57,8l-2-5.93a19.73,19.73,0,0,1-.28-5.11,20.5,20.5,0,1,1,40.88,3.07Z"/><path class="cls-1" d="M122.62,371.06a184.47,184.47,0,0,0,34.32,51.28l14.14-14.14a162.92,162.92,0,0,1-44.32-107.38h-20a182.54,182.54,0,0,0,11.08,58.46L56.13,380.4a30.59,30.59,0,1,0,4.51,11.87ZM50.94,398.45a20.58,20.58,0,1,1-2.31-11l2,5.93A20.16,20.16,0,0,1,50.94,398.45Z"/><path class="cls-1" d="M544.36,400a30,30,0,0,0-4.7,5.09l-59.89-29.35A182.3,182.3,0,0,0,497,309.82h-20a163.11,163.11,0,0,1-51.19,106.65l14.14,14.14a184.67,184.67,0,0,0,34-43.57l60.53,29.65a30.48,30.48,0,1,0,9.9-16.67Zm33.26,38.66A20.48,20.48,0,0,1,544.71,417l2.76-5.63a20.08,20.08,0,0,1,3.41-3.81,20.5,20.5,0,0,1,26.74,31.08Z"/><path class="cls-1" d="M54.1,200.67a30.83,30.83,0,0,0,4.7-5.09l62,30.36a182.1,182.1,0,0,0-13.63,57.88h20a163.18,163.18,0,0,1,51.19-106.65L164.22,163a184.68,184.68,0,0,0-38.17,51.36L64,184a30.47,30.47,0,1,0-9.9,16.68ZM20.84,162a20.48,20.48,0,0,1,32.91,21.64L51,189.28a20.08,20.08,0,0,1-3.41,3.81A20.5,20.5,0,0,1,20.84,162Z"/><path class="cls-2" d="M273.06,155.51c-.11.62.23,1.17.27,1.77a36,36,0,0,1,.77,6.37,4,4,0,0,1-1,2.43,8.39,8.39,0,0,0-.19,9.49c.54.75,1.1,1.5,1.68,2.22a3.35,3.35,0,0,1,.43,3.79A26.43,26.43,0,0,0,274,184a4.43,4.43,0,0,0,.29,3.9,3,3,0,0,1,.57,2.5,1.35,1.35,0,0,0,.49,1.49c.95.49,1,1.34,1.3,2.17.46,1.42,1,1.8,2.43,1.55a1.65,1.65,0,0,1,2.05,1.2,7.92,7.92,0,0,1,.5,1.3,3,3,0,0,0,2.69,2.47c.86.14,1.59.4,1.82,1.45.18.76.93,1,1.63,1.25,1.32.45,2.72.58,4,1.14.57.25.92.46.85,1.17a2.41,2.41,0,0,0,1.5,2.44,9.28,9.28,0,0,0,4.73,1.15,10.67,10.67,0,0,1,4.69.84c2.28,1,3.68.59,5.3-1.28a2.15,2.15,0,0,1,2.46-.73,15,15,0,0,1,5.08,2.19,7.34,7.34,0,0,0,2.62,1.23,2.92,2.92,0,0,0,2.69-.71c1.36-1.13,2.06-1,2.52.74a3.55,3.55,0,0,0,3.54,3,3.53,3.53,0,0,1,2.51,1.51c.86,1,1.82,1.64,3.21.95a2,2,0,0,1,1.37-.06,31.54,31.54,0,0,0,5.88.9,3.84,3.84,0,0,1,3.19,2,5.26,5.26,0,0,0,2.86,2.37,4.06,4.06,0,0,1,2.44,1.91,3.7,3.7,0,0,0,4.42,2.07,2.94,2.94,0,0,1,.51,0c2.66,0,5.33.46,7.87-.9.67-.36,1.59.14,2.28.53A94.5,94.5,0,0,0,375,231.25a3.63,3.63,0,0,1,1.45,1.38,3.29,3.29,0,0,0,1.74,1.42c1.06.3,1,1,.59,1.75a10.19,10.19,0,0,1-.71,1c-1.41,2-1.54,4,.2,5.63,2.24,2.09,2.34,4.07.81,6.57a6.73,6.73,0,0,0-.48,5.77c.41,1.22.64,2.33-.76,3.19-.75.45-.35,1.07.15,1.58,1.7,1.72,3.35,3.47,5.06,5.17a5.54,5.54,0,0,1,1.53,3.52c.48,4.24,1,8.47,1.51,12.71a1.36,1.36,0,0,0,1.4,1.33,49.19,49.19,0,0,0,9,0c7.67-.52,15.35-1.05,23-1,1.79,0,3.54-.09,5-1.29.22-.17.52-.43.79-.17s.1.57,0,.84a4.79,4.79,0,0,0-.29,3,2.46,2.46,0,0,1-.66,1.86,5.32,5.32,0,0,0-.9,3.85c.31,2.13.33,4.3,1.19,6.33a7.79,7.79,0,0,1,.28,2.77,3.78,3.78,0,0,0,3.1,3.93c1.5.44,3,.82,4.49,1.33a6.41,6.41,0,0,1,4.41,4.38,24.9,24.9,0,0,0,4.39,8.2,4,4,0,0,1,.29,4.79c-1.53,2.89-1.88,6.18-2.64,9.33a3.86,3.86,0,0,0,.64,2.9c.48.8.43,1.51-.46,1.86-1.72.69-2.2,2.19-2.72,3.72a71.22,71.22,0,0,1-3.43,8.57c-1.16,2.38-1,2.93.95,4.71,1.13,1,2.23,2.07,3.39,3.14a18.68,18.68,0,0,1-3.1,2.21c-.54.32-.88.27-1-.39-.45-3.4-2.94-4.94-5.66-6.27a115.93,115.93,0,0,1-11.84-6.59c-2.78-1.79-5.75-1.79-8.8-1.44a41.51,41.51,0,0,1-6.59.4c-4.84-.24-9.33,1.2-13.83,2.7-7.77,2.58-15.59,5-23.45,7.23a3.32,3.32,0,0,0-2.39,2.36c-.58,1.8-1.11,3.63-1.69,5.43a23,23,0,0,1-3.24,6.56,13.12,13.12,0,0,0-2.14,11.09,20,20,0,0,1-.83,11.21c-2,5.73-3.27,11.7-5,17.51-.09.31.07.88-.51.83a1.06,1.06,0,0,1-1.08-.9c0-.29-.12-.58-.15-.87a2,2,0,0,0-2.22-1.94,36.36,36.36,0,0,0-4.17.29c-2.9.2-5.81.32-8.72.46a2.55,2.55,0,0,0-1.8.44,1.93,1.93,0,0,1-2.43.28,7.68,7.68,0,0,0-1.68-.55,1.85,1.85,0,0,0-2.42,1.72,2,2,0,0,1-.22,1.1c-1.75,2.38-2.39,5.29-3.69,7.89a8.65,8.65,0,0,0-.75,4.57c.06,1,.05,1.94,0,2.91,0,.37-.09.87-.47,1s-.58-.4-.76-.7A7,7,0,0,1,316,421c-.24-1.91-.81-3.63-2.52-4.75a1.2,1.2,0,0,1-.49-1.43c.36-1.76-.19-2.92-1.93-3.38-3.88-1-7.67-2.66-11.85-1.86a15.22,15.22,0,0,1-3.17.12,13.72,13.72,0,0,0-5.7.95,3.55,3.55,0,0,1-4.46-.95,9.13,9.13,0,0,0-5.61-2.65c-2-.36-3.34.82-3.31,3a2.25,2.25,0,0,1-2,2.63c-2.07.57-3.64,2.22-5.49,3.31-.65.39-.6,1.24-.65,2-.06,1-.05,1.9-1.39,2.47-1.1.47-1.93,1.69-3,2.49-.32.25-.34.75-.36,1.18a5.53,5.53,0,0,1-3.93,5.43,24,24,0,0,1-8.88,1.78c-1.73-.06-2-.3-2.41-2a80.22,80.22,0,0,1-1.54-9.88c-.25-2.54-.91-4.94-3.54-6.15-.61-.28-.58-.82-.51-1.31a7.48,7.48,0,0,0-1.61-5.93c-1-1.32-.86-3-1.16-4.47a13.29,13.29,0,0,0-5.77-8.32,10.76,10.76,0,0,0-1-.47c-.66-.35-1.84.07-2-.76-.25-1.23-.64-2.57.17-3.81,1.16-1.77.1-2.68-1.43-3.2-.75-.25-1.55-.4-2.33-.59a1.33,1.33,0,0,1-1.06-1.82,15,15,0,0,1,.39-1.46c1.06-3.08,1-3.44-1.56-5.38a2.18,2.18,0,0,1,1.37-.52,4,4,0,0,0,1.85-.77,2.28,2.28,0,0,0-.58-4.05c-2.15-.9-2.27-1.32-.89-3.23.92-1.26,1.93-2.47,2.78-3.77,1.19-1.84.84-3.1-1.08-4.18a10.45,10.45,0,0,0-2-.89c-3-.9-5.21-2.9-7.43-4.93a1.29,1.29,0,0,1-.46-1.58,1.27,1.27,0,0,0-.23-1.51c-2.3-2.69-3.05-6-3.65-9.32a20.91,20.91,0,0,0-.59-2.72,5.28,5.28,0,0,1-.2-3c.43-1.94-.49-3-2.44-3.09-2.66-.11-2.74-.12-3.54-2.53a5.86,5.86,0,0,0-4-4.18c-.51-.15-.54-.35-.4-.8a4.84,4.84,0,0,0-2-6c-1-.65-.84-1.36-.07-2.08a2.06,2.06,0,0,1,.47-.42c2.72-1.29,4-3.74,5.22-6.29a9.4,9.4,0,0,1,3.46-3.93c.45-.3.92-.74.8-1.15-.29-1,.2-1,.91-1.07a6.23,6.23,0,0,0,1.11-.22,1.67,1.67,0,0,0,1.44-2.21c-.13-.58-.18-.93.52-1.08a2.71,2.71,0,0,0,2.38-2.58,1.56,1.56,0,0,1,.57-.94,1.45,1.45,0,0,0-.64-2.56,7.93,7.93,0,0,0-2.38-.29,11.31,11.31,0,0,1-1.63-.19c-.59-.12-.72-.69-.87-1.14s.43-.41.63-.65.41-.31.56-.5c1.08-1.39,1.72-2.47-.81-2.91a10.5,10.5,0,0,1-5.17-2.48c-1.17-1-2.7-1.39-3.94-2.28a14.23,14.23,0,0,1-1.47-1.2c-.47-.43-.51-.83.15-1.17a3.57,3.57,0,0,0,1.64-2.3,15.21,15.21,0,0,1,1.08-3.08,1,1,0,0,0-.18-1.28,4.17,4.17,0,0,0-1.55-1.28c-2.7-1-2.93-3.59-3.56-5.88-.14-.49.24-.87.64-1.14a6.78,6.78,0,0,0,2.35-2.77,2.79,2.79,0,0,1,2-1.63c1-.23,1.29-.7.74-1.63s-.64-2,.64-2.7a2,2,0,0,0,1-1.8,1.38,1.38,0,0,1,.83-1.42c1.48-.81,1.49-2.43,0-3.47a5.32,5.32,0,0,1-1.92-2.43,3,3,0,0,1,0-2.66,2.74,2.74,0,0,0-.81-3.43,1.46,1.46,0,0,1-.31-2.08c1.19-2.17,1.89-4.42.82-6.89a3,3,0,0,1,0-1.88c.07-.29.26-.62.18-.86-.84-2.5.58-4.43,1.56-6.48a3.48,3.48,0,0,0,.29-3.37c-.38-.72.44-1.21.83-1.71,1.46-1.88,1.54-1.33,0-3.35q-10.19-13.6-20.42-27.16c.06-.08.1-.2.15-.19a45.19,45.19,0,0,0,9.7-.81,19.66,19.66,0,0,1,8.56.37c3.21.88,5.71-.26,7.77-2.63,1-1.12,1.84-2.32,2.69-3.52a4.72,4.72,0,0,1,4-2,16.46,16.46,0,0,1,2.53,0c1.67.23,2.49-.71,3.11-2a15.79,15.79,0,0,1,3.19-4.84,5.22,5.22,0,0,1,3.62-1.84,3.72,3.72,0,0,0,2.73-1.42c2.83-3.2,6.23-5.83,9-9.07,1.64-1.9,4.1-2,6.39-2.4l1.74-.3c3.05,0,6.09.06,8.78-1.75a2.31,2.31,0,0,1,1.84-.21c2,1.17,3,1,4.4-.84.53-.7,1-1.6,2-1.54S272.57,154.93,273.06,155.51Z"/><path class="cls-3" d="M317.63,278.38c-1.09-1.53-.62-3.24-.36-4.85.23-1.41-.31-2.33-1.54-1.88s-1.68,0-1.83-1a2.27,2.27,0,0,0-1.1-1.56,3.38,3.38,0,0,1-1.21-1.56c-.41-1.73-.9-3.07-3.08-2.42-.54.16-1.06-.43-1-1,.19-1.5-.73-1.85-1.82-2.06s-1.35-.77-1.49-1.82c-.11-.89,0-2.49-1.81-1.72a.59.59,0,0,1-.87-.53,2.53,2.53,0,0,0-2.42-2.46c-1-.19-1.14-1.08-1.29-2s-.1-2.26-1.77-1.57c-.88.36-.91-.49-1-1.08-.23-1.35-.88-2.22-2.32-2.25l-.2,0c-.34,0-.91-.15-.74-.39,1.48-2.17-2.92-2.14-1.47-4.23,3.9,2.36,6.66,6,9.8,9.22q22.56,23,45,46.23a20.46,20.46,0,0,1,.51,28.36,19,19,0,0,1-27.84.19Q292,301.66,266.43,275.21a19,19,0,0,1-5.54-11.27,4.11,4.11,0,0,1,1.69,3.68c0,.45,0,1,.34,1,2.43.09,2.5,2.69,3.94,3.81a1.13,1.13,0,0,1,.52,1.4,1.2,1.2,0,0,0,.08.76c.42,1.12,5.05,4.47,6.26,4.49s1.76.19,1.12,1.52-.32,2,1.22,1.52c1.86-.62,2.47.55,2.61,2a2.28,2.28,0,0,0,1.59,2.29,2.39,2.39,0,0,1,1.58,1.92c.21.93.62,1.66,1.62,1.83.34.05.81.14.77.5-.25,2.18,1.59,2.32,2.77,2.68s.74,1.5,1.4,2a17.32,17.32,0,0,1,4.29,5.42,1.31,1.31,0,0,0,1.63.79c.78-.24.47-.87.53-1.47.18-2,1.62-1.42,2.82-1.25a.67.67,0,0,1,0,.2c-1.41,2.86-1.41,2.86.93,5.26,6.9,7.11,13.78,14.24,20.72,21.31a16.66,16.66,0,0,0,21.38,2.54c8.06-5.26,10.06-17.08,4.2-24.84-2.34-3.09-5.31-5.53-8-8.28-4.87-5-9.78-10-14.66-15.07C320.92,278.64,319.76,277.19,317.63,278.38Z"/><path class="cls-3" d="M260.89,263.94c-1.08-8.4,1.76-15.17,8.59-19.76s13.84-4.55,20.84-.26c.48.27-.54,1,.35,1.17,1.48.35,1.22,2.29,2.13,2.84a17.17,17.17,0,0,1,2.74,2.31c1.51,1.36,2.34,3.5,3.73,4.38,1.67,1,2.32,3.44,4.58,3.5.63,2.16,2.38,3.27,3.85,4.73.72.72,1,1.73,2.25,1.69a1.59,1.59,0,0,1,1.51,1.18c.38,1.94,2.09,2.94,2.87,4.57a1.46,1.46,0,0,0,1.43.84c1.9.17,2.32.82,1.95,2.81a16.14,16.14,0,0,0,0,4.28c-.06,1-.78,1.55-1.38,2.17l-16.76,17.25a4.31,4.31,0,0,1-2.07,1.52c-.9.15-1.77.1-2.09,1.41-.45,1.81-2,2.13-3,.57a63.11,63.11,0,0,0-4.69-6.06c-.29-.36-.45-.87-.9-1.06-2.83-1.17-4.06-3.89-5.86-6.12-1.2-1.49-2.8-2.55-3.18-4.66-.13-.68-.93-.64-1.54-.55-1.36.18-2.32-.15-2-1.85.2-1-.37-1.17-1.1-1.22a3.3,3.3,0,0,1-2.5-1.49,4.21,4.21,0,0,0-1.85-1.49,2.45,2.45,0,0,1-1.6-1.71c-.3-1.55-1.4-2.6-2-3.93-.06-.13-.09-.32-.18-.36C262,269.45,262.15,266.23,260.89,263.94Z"/><path class="cls-3" d="M274.54,304a22.06,22.06,0,0,1,21.8,22.35c0,12.43-9.68,22.5-21.65,22.53-12.28,0-22-9.93-22-22.58A22,22,0,0,1,274.54,304Z"/><path class="cls-4" d="M317.63,278.38c2.11-1.83,2.09-1.82,4.17.32,7.28,7.5,14.63,14.93,21.86,22.49,9.16,9.58,5.52,25.42-6.76,29.41-6.48,2.1-12.42.78-17.31-4.13-7.85-7.88-15.54-15.94-23.35-23.86-.94-1-.8-1.48.08-2.22a14.75,14.75,0,0,0,1.35-1.49Z"/><path class="cls-5" d="M286.6,313.14c.77.24,1.15.76.64,1.5a14.48,14.48,0,0,1-1.64,1.78l-20.88,21.45c-.28.29-.58.56-.88.83s-.81.54-1.23.14a1,1,0,0,1,0-1.46,9.73,9.73,0,0,1,.69-.74L285,314.33C285.46,313.86,285.86,313.27,286.6,313.14Z"/></g></g></svg>